<?xml version="1.0" standalone="no"?>
<!DOCTYPE svg PUBLIC "-//W3C//DTD SVG 20010904//EN"
 "http://www.w3.org/TR/2001/REC-SVG-20010904/DTD/svg10.dtd">
<svg xmlns="http://www.w3.org/2000/svg"
 width="96.000000pt" height="96.000000pt" viewBox="0 0 96.000000 96.000000"
 preserveAspectRatio="xMidYMid meet">

<g transform="translate(0.000000,96.000000) scale(0.100000,-0.100000)"
fill="#000000" stroke="none">
<path d="M411 936 c-12 -13 -30 -50 -40 -82 -13 -47 -22 -59 -44 -67 -23 -7
-33 -4 -69 27 -51 44 -105 57 -125 30 -17 -23 -10 -71 19 -132 17 -35 18 -48
9 -68 -9 -20 -18 -24 -58 -24 -102 0 -134 -53 -66 -109 21 -17 48 -34 61 -37
19 -5 22 -13 22 -58 l0 -51 -46 -19 c-25 -10 -52 -29 -61 -43 -15 -22 -15 -26
-1 -40 9 -8 37 -18 62 -20 l46 -6 0 -58 0 -59 341 0 340 0 -3 222 c-3 216 -4
225 -29 278 -14 30 -44 72 -65 94 -36 36 -124 86 -151 86 -7 0 -15 12 -19 28
-15 72 -53 132 -83 132 -10 0 -28 -11 -40 -24z m174 -234 c52 -26 89 -66 114
-122 18 -39 21 -66 21 -212 l0 -168 -260 0 -260 0 0 168 c0 146 3 173 21 212
32 71 83 116 159 141 44 15 162 4 205 -19z"/>
<path d="M330 545 c-15 -18 -10 -45 13 -59 34 -22 73 27 47 59 -16 19 -44 19
-60 0z"/>
<path d="M570 545 c-15 -18 -10 -45 13 -59 34 -22 73 27 47 59 -16 19 -44 19
-60 0z"/>
<path d="M400 425 c0 -27 47 -65 80 -65 33 0 80 38 80 65 0 12 -15 15 -80 15
-65 0 -80 -3 -80 -15z"/>
</g>
</svg>
